<mxfile host="65bd71144e">
    <diagram id="Yfhvj9_q1972RufrkOe0" name="BookDatabase">
        <mxGraphModel dx="685" dy="574" grid="1" gridSize="10" guides="1" tooltips="1" connect="1" arrows="1" fold="1" page="1" pageScale="1" pageWidth="850" pageHeight="1100" math="0" shadow="0">
            <root>
                <mxCell id="0"/>
                <mxCell id="1" parent="0"/>
                <mxCell id="2" value="" style="shape=actor;whiteSpace=wrap;html=1;" vertex="1" parent="1">
                    <mxGeometry x="400" y="610" width="60" height="100" as="geometry"/>
                </mxCell>
                <mxCell id="3" value="book" style="ellipse;shape=cloud;whiteSpace=wrap;html=1;" vertex="1" parent="1">
                    <mxGeometry x="140" y="410" width="120" height="80" as="geometry"/>
                </mxCell>
                <mxCell id="4" value="autor" style="ellipse;shape=cloud;whiteSpace=wrap;html=1;" vertex="1" parent="1">
                    <mxGeometry x="310" y="370" width="120" height="80" as="geometry"/>
                </mxCell>
                <mxCell id="5" value="&lt;br&gt;publisher" style="ellipse;shape=cloud;whiteSpace=wrap;html=1;" vertex="1" parent="1">
                    <mxGeometry x="490" y="380" width="120" height="80" as="geometry"/>
                </mxCell>
            </root>
        </mxGraphModel>
    </diagram>
    <diagram id="yoDNomRhEwPU16zgoY9S" name="books-ER">
        <mxGraphModel dx="685" dy="1674" grid="1" gridSize="10" guides="1" tooltips="1" connect="1" arrows="1" fold="1" page="1" pageScale="1" pageWidth="850" pageHeight="1100" math="0" shadow="0">
            <root>
                <mxCell id="h2HnMMq8VR8L7slyEPEh-0"/>
                <mxCell id="h2HnMMq8VR8L7slyEPEh-1" parent="h2HnMMq8VR8L7slyEPEh-0"/>
                <mxCell id="h2HnMMq8VR8L7slyEPEh-7" value="" style="edgeStyle=none;html=1;startArrow=none;startFill=0;endArrow=ERone;endFill=0;" edge="1" parent="h2HnMMq8VR8L7slyEPEh-1" source="xJDFAvWGTIx96ouEPMsm-0" target="h2HnMMq8VR8L7slyEPEh-3">
                    <mxGeometry relative="1" as="geometry">
                        <Array as="points">
                            <mxPoint x="400" y="380"/>
                        </Array>
                    </mxGeometry>
                </mxCell>
                <mxCell id="h2HnMMq8VR8L7slyEPEh-9" style="edgeStyle=none;html=1;entryX=0;entryY=0.5;entryDx=0;entryDy=0;startArrow=none;startFill=0;endArrow=ERone;endFill=0;exitX=1;exitY=0.5;exitDx=0;exitDy=0;" edge="1" parent="h2HnMMq8VR8L7slyEPEh-1" source="xJDFAvWGTIx96ouEPMsm-2" target="h2HnMMq8VR8L7slyEPEh-4">
                    <mxGeometry relative="1" as="geometry"/>
                </mxCell>
                <mxCell id="h2HnMMq8VR8L7slyEPEh-2" value="Book" style="rounded=0;whiteSpace=wrap;html=1;" vertex="1" parent="h2HnMMq8VR8L7slyEPEh-1">
                    <mxGeometry x="160" y="280" width="120" height="60" as="geometry"/>
                </mxCell>
                <mxCell id="h2HnMMq8VR8L7slyEPEh-3" value="Author" style="rounded=0;whiteSpace=wrap;html=1;" vertex="1" parent="h2HnMMq8VR8L7slyEPEh-1">
                    <mxGeometry x="550" y="430" width="120" height="60" as="geometry"/>
                </mxCell>
                <mxCell id="h2HnMMq8VR8L7slyEPEh-4" value="Publisher" style="rounded=0;whiteSpace=wrap;html=1;" vertex="1" parent="h2HnMMq8VR8L7slyEPEh-1">
                    <mxGeometry x="550" y="90" width="120" height="60" as="geometry"/>
                </mxCell>
                <mxCell id="h2HnMMq8VR8L7slyEPEh-22" style="edgeStyle=none;html=1;exitX=0.5;exitY=0;exitDx=0;exitDy=0;entryX=0.25;entryY=1;entryDx=0;entryDy=0;startArrow=none;startFill=0;endArrow=none;endFill=0;" edge="1" parent="h2HnMMq8VR8L7slyEPEh-1" source="h2HnMMq8VR8L7slyEPEh-10" target="h2HnMMq8VR8L7slyEPEh-2">
                    <mxGeometry relative="1" as="geometry"/>
                </mxCell>
                <mxCell id="h2HnMMq8VR8L7slyEPEh-10" value="BookTitle" style="ellipse;whiteSpace=wrap;html=1;" vertex="1" parent="h2HnMMq8VR8L7slyEPEh-1">
                    <mxGeometry x="120" y="400" width="90" height="60" as="geometry"/>
                </mxCell>
                <mxCell id="h2HnMMq8VR8L7slyEPEh-21" style="edgeStyle=none;html=1;entryX=0;entryY=0.75;entryDx=0;entryDy=0;startArrow=none;startFill=0;endArrow=none;endFill=0;" edge="1" parent="h2HnMMq8VR8L7slyEPEh-1" source="h2HnMMq8VR8L7slyEPEh-11" target="h2HnMMq8VR8L7slyEPEh-2">
                    <mxGeometry relative="1" as="geometry"/>
                </mxCell>
                <mxCell id="h2HnMMq8VR8L7slyEPEh-11" value="BookId" style="ellipse;whiteSpace=wrap;html=1;" vertex="1" parent="h2HnMMq8VR8L7slyEPEh-1">
                    <mxGeometry x="15" y="350" width="110" height="60" as="geometry"/>
                </mxCell>
                <mxCell id="h2HnMMq8VR8L7slyEPEh-20" style="edgeStyle=none;html=1;entryX=0.108;entryY=0;entryDx=0;entryDy=0;entryPerimeter=0;startArrow=none;startFill=0;endArrow=none;endFill=0;" edge="1" parent="h2HnMMq8VR8L7slyEPEh-1" source="h2HnMMq8VR8L7slyEPEh-12" target="h2HnMMq8VR8L7slyEPEh-2">
                    <mxGeometry relative="1" as="geometry"/>
                </mxCell>
                <mxCell id="h2HnMMq8VR8L7slyEPEh-12" value="Chapters" style="ellipse;whiteSpace=wrap;html=1;" vertex="1" parent="h2HnMMq8VR8L7slyEPEh-1">
                    <mxGeometry x="25" y="190" width="100" height="70" as="geometry"/>
                </mxCell>
                <mxCell id="h2HnMMq8VR8L7slyEPEh-19" style="edgeStyle=none;html=1;exitX=0.5;exitY=1;exitDx=0;exitDy=0;entryX=0.25;entryY=0;entryDx=0;entryDy=0;startArrow=none;startFill=0;endArrow=none;endFill=0;" edge="1" parent="h2HnMMq8VR8L7slyEPEh-1" source="h2HnMMq8VR8L7slyEPEh-13" target="h2HnMMq8VR8L7slyEPEh-2">
                    <mxGeometry relative="1" as="geometry"/>
                </mxCell>
                <mxCell id="h2HnMMq8VR8L7slyEPEh-13" value="DateOfBuying" style="ellipse;whiteSpace=wrap;html=1;" vertex="1" parent="h2HnMMq8VR8L7slyEPEh-1">
                    <mxGeometry x="110" y="120" width="100" height="60" as="geometry"/>
                </mxCell>
                <mxCell id="h2HnMMq8VR8L7slyEPEh-18" style="edgeStyle=none;html=1;exitX=0;exitY=1;exitDx=0;exitDy=0;entryX=0.75;entryY=0;entryDx=0;entryDy=0;startArrow=none;startFill=0;endArrow=none;endFill=0;" edge="1" parent="h2HnMMq8VR8L7slyEPEh-1" source="h2HnMMq8VR8L7slyEPEh-15" target="h2HnMMq8VR8L7slyEPEh-2">
                    <mxGeometry relative="1" as="geometry"/>
                </mxCell>
                <mxCell id="h2HnMMq8VR8L7slyEPEh-15" value="StartReading" style="ellipse;whiteSpace=wrap;html=1;" vertex="1" parent="h2HnMMq8VR8L7slyEPEh-1">
                    <mxGeometry x="230" y="130" width="100" height="60" as="geometry"/>
                </mxCell>
                <mxCell id="h2HnMMq8VR8L7slyEPEh-23" style="edgeStyle=none;html=1;exitX=0;exitY=0;exitDx=0;exitDy=0;entryX=0.7;entryY=1.017;entryDx=0;entryDy=0;entryPerimeter=0;startArrow=none;startFill=0;endArrow=none;endFill=0;" edge="1" parent="h2HnMMq8VR8L7slyEPEh-1" source="h2HnMMq8VR8L7slyEPEh-16" target="h2HnMMq8VR8L7slyEPEh-2">
                    <mxGeometry relative="1" as="geometry"/>
                </mxCell>
                <mxCell id="h2HnMMq8VR8L7slyEPEh-16" value="EndReading" style="ellipse;whiteSpace=wrap;html=1;" vertex="1" parent="h2HnMMq8VR8L7slyEPEh-1">
                    <mxGeometry x="250" y="390" width="100" height="60" as="geometry"/>
                </mxCell>
                <mxCell id="h2HnMMq8VR8L7slyEPEh-31" style="edgeStyle=none;html=1;exitX=1;exitY=1;exitDx=0;exitDy=0;entryX=0.075;entryY=0;entryDx=0;entryDy=0;entryPerimeter=0;startArrow=none;startFill=0;endArrow=none;endFill=0;" edge="1" parent="h2HnMMq8VR8L7slyEPEh-1" source="h2HnMMq8VR8L7slyEPEh-24" target="h2HnMMq8VR8L7slyEPEh-4">
                    <mxGeometry relative="1" as="geometry"/>
                </mxCell>
                <mxCell id="h2HnMMq8VR8L7slyEPEh-24" value="PublisherId" style="ellipse;whiteSpace=wrap;html=1;" vertex="1" parent="h2HnMMq8VR8L7slyEPEh-1">
                    <mxGeometry x="400" y="10" width="100" height="60" as="geometry"/>
                </mxCell>
                <mxCell id="h2HnMMq8VR8L7slyEPEh-26" value="" style="edgeStyle=none;html=1;startArrow=none;startFill=0;endArrow=none;endFill=0;" edge="1" parent="h2HnMMq8VR8L7slyEPEh-1" source="h2HnMMq8VR8L7slyEPEh-25" target="h2HnMMq8VR8L7slyEPEh-2">
                    <mxGeometry relative="1" as="geometry"/>
                </mxCell>
                <mxCell id="h2HnMMq8VR8L7slyEPEh-25" value="Genre" style="ellipse;whiteSpace=wrap;html=1;" vertex="1" parent="h2HnMMq8VR8L7slyEPEh-1">
                    <mxGeometry y="270" width="110" height="60" as="geometry"/>
                </mxCell>
                <mxCell id="h2HnMMq8VR8L7slyEPEh-48" style="edgeStyle=none;html=1;exitX=0.5;exitY=1;exitDx=0;exitDy=0;entryX=0.625;entryY=0.017;entryDx=0;entryDy=0;entryPerimeter=0;startArrow=none;startFill=0;endArrow=none;endFill=0;" edge="1" parent="h2HnMMq8VR8L7slyEPEh-1" source="h2HnMMq8VR8L7slyEPEh-27" target="h2HnMMq8VR8L7slyEPEh-4">
                    <mxGeometry relative="1" as="geometry"/>
                </mxCell>
                <mxCell id="h2HnMMq8VR8L7slyEPEh-27" value="Country" style="ellipse;whiteSpace=wrap;html=1;" vertex="1" parent="h2HnMMq8VR8L7slyEPEh-1">
                    <mxGeometry x="620" y="-60" width="100" height="60" as="geometry"/>
                </mxCell>
                <mxCell id="h2HnMMq8VR8L7slyEPEh-29" style="edgeStyle=none;html=1;startArrow=none;startFill=0;endArrow=none;endFill=0;" edge="1" parent="h2HnMMq8VR8L7slyEPEh-1" source="h2HnMMq8VR8L7slyEPEh-28" target="h2HnMMq8VR8L7slyEPEh-4">
                    <mxGeometry relative="1" as="geometry">
                        <mxPoint x="600" y="80" as="targetPoint"/>
                    </mxGeometry>
                </mxCell>
                <mxCell id="h2HnMMq8VR8L7slyEPEh-28" value="PublishingHouse" style="ellipse;whiteSpace=wrap;html=1;" vertex="1" parent="h2HnMMq8VR8L7slyEPEh-1">
                    <mxGeometry x="510" y="-40" width="100" height="60" as="geometry"/>
                </mxCell>
                <mxCell id="h2HnMMq8VR8L7slyEPEh-45" style="edgeStyle=none;html=1;exitX=1;exitY=0;exitDx=0;exitDy=0;entryX=0;entryY=0.75;entryDx=0;entryDy=0;startArrow=none;startFill=0;endArrow=none;endFill=0;" edge="1" parent="h2HnMMq8VR8L7slyEPEh-1" source="h2HnMMq8VR8L7slyEPEh-32" target="h2HnMMq8VR8L7slyEPEh-3">
                    <mxGeometry relative="1" as="geometry"/>
                </mxCell>
                <mxCell id="h2HnMMq8VR8L7slyEPEh-32" value="AuthorId" style="ellipse;whiteSpace=wrap;html=1;" vertex="1" parent="h2HnMMq8VR8L7slyEPEh-1">
                    <mxGeometry x="400" y="500" width="100" height="60" as="geometry"/>
                </mxCell>
                <mxCell id="h2HnMMq8VR8L7slyEPEh-44" style="edgeStyle=none;html=1;exitX=1;exitY=0;exitDx=0;exitDy=0;entryX=0.392;entryY=1;entryDx=0;entryDy=0;entryPerimeter=0;startArrow=none;startFill=0;endArrow=none;endFill=0;" edge="1" parent="h2HnMMq8VR8L7slyEPEh-1" source="h2HnMMq8VR8L7slyEPEh-33" target="h2HnMMq8VR8L7slyEPEh-3">
                    <mxGeometry relative="1" as="geometry"/>
                </mxCell>
                <mxCell id="h2HnMMq8VR8L7slyEPEh-33" value="FirstName" style="ellipse;whiteSpace=wrap;html=1;" vertex="1" parent="h2HnMMq8VR8L7slyEPEh-1">
                    <mxGeometry x="490" y="560" width="100" height="60" as="geometry"/>
                </mxCell>
                <mxCell id="h2HnMMq8VR8L7slyEPEh-43" style="edgeStyle=none;html=1;exitX=0.5;exitY=0;exitDx=0;exitDy=0;entryX=0.658;entryY=1.033;entryDx=0;entryDy=0;entryPerimeter=0;startArrow=none;startFill=0;endArrow=none;endFill=0;" edge="1" parent="h2HnMMq8VR8L7slyEPEh-1" source="h2HnMMq8VR8L7slyEPEh-34" target="h2HnMMq8VR8L7slyEPEh-3">
                    <mxGeometry relative="1" as="geometry"/>
                </mxCell>
                <mxCell id="h2HnMMq8VR8L7slyEPEh-34" value="MiddleName" style="ellipse;whiteSpace=wrap;html=1;" vertex="1" parent="h2HnMMq8VR8L7slyEPEh-1">
                    <mxGeometry x="610" y="590" width="100" height="60" as="geometry"/>
                </mxCell>
                <mxCell id="h2HnMMq8VR8L7slyEPEh-42" style="edgeStyle=none;html=1;exitX=0;exitY=0;exitDx=0;exitDy=0;entryX=0.95;entryY=1;entryDx=0;entryDy=0;entryPerimeter=0;startArrow=none;startFill=0;endArrow=none;endFill=0;" edge="1" parent="h2HnMMq8VR8L7slyEPEh-1" source="h2HnMMq8VR8L7slyEPEh-35" target="h2HnMMq8VR8L7slyEPEh-3">
                    <mxGeometry relative="1" as="geometry"/>
                </mxCell>
                <mxCell id="h2HnMMq8VR8L7slyEPEh-35" value="LastName" style="ellipse;whiteSpace=wrap;html=1;" vertex="1" parent="h2HnMMq8VR8L7slyEPEh-1">
                    <mxGeometry x="730" y="550" width="100" height="60" as="geometry"/>
                </mxCell>
                <mxCell id="h2HnMMq8VR8L7slyEPEh-41" style="edgeStyle=none;html=1;entryX=1;entryY=0.5;entryDx=0;entryDy=0;startArrow=none;startFill=0;endArrow=none;endFill=0;" edge="1" parent="h2HnMMq8VR8L7slyEPEh-1" source="h2HnMMq8VR8L7slyEPEh-36" target="h2HnMMq8VR8L7slyEPEh-3">
                    <mxGeometry relative="1" as="geometry"/>
                </mxCell>
                <mxCell id="h2HnMMq8VR8L7slyEPEh-36" value="Country" style="ellipse;whiteSpace=wrap;html=1;" vertex="1" parent="h2HnMMq8VR8L7slyEPEh-1">
                    <mxGeometry x="750" y="460" width="90" height="60" as="geometry"/>
                </mxCell>
                <mxCell id="h2HnMMq8VR8L7slyEPEh-40" style="edgeStyle=none;html=1;exitX=0;exitY=1;exitDx=0;exitDy=0;entryX=0.875;entryY=0.017;entryDx=0;entryDy=0;entryPerimeter=0;startArrow=none;startFill=0;endArrow=none;endFill=0;" edge="1" parent="h2HnMMq8VR8L7slyEPEh-1" source="h2HnMMq8VR8L7slyEPEh-37" target="h2HnMMq8VR8L7slyEPEh-3">
                    <mxGeometry relative="1" as="geometry"/>
                </mxCell>
                <mxCell id="h2HnMMq8VR8L7slyEPEh-37" value="Birthday" style="ellipse;whiteSpace=wrap;html=1;" vertex="1" parent="h2HnMMq8VR8L7slyEPEh-1">
                    <mxGeometry x="720" y="340" width="100" height="60" as="geometry"/>
                </mxCell>
                <mxCell id="h2HnMMq8VR8L7slyEPEh-39" style="edgeStyle=none;html=1;startArrow=none;startFill=0;endArrow=none;endFill=0;" edge="1" parent="h2HnMMq8VR8L7slyEPEh-1" source="h2HnMMq8VR8L7slyEPEh-38" target="h2HnMMq8VR8L7slyEPEh-3">
                    <mxGeometry relative="1" as="geometry"/>
                </mxCell>
                <mxCell id="h2HnMMq8VR8L7slyEPEh-38" value="NrOfBooksWriten" style="ellipse;whiteSpace=wrap;html=1;" vertex="1" parent="h2HnMMq8VR8L7slyEPEh-1">
                    <mxGeometry x="600" y="310" width="100" height="60" as="geometry"/>
                </mxCell>
                <mxCell id="h2HnMMq8VR8L7slyEPEh-49" style="edgeStyle=none;html=1;exitX=0;exitY=1;exitDx=0;exitDy=0;entryX=0.892;entryY=0;entryDx=0;entryDy=0;entryPerimeter=0;startArrow=none;startFill=0;endArrow=none;endFill=0;" edge="1" parent="h2HnMMq8VR8L7slyEPEh-1" source="h2HnMMq8VR8L7slyEPEh-46" target="h2HnMMq8VR8L7slyEPEh-4">
                    <mxGeometry relative="1" as="geometry"/>
                </mxCell>
                <mxCell id="h2HnMMq8VR8L7slyEPEh-46" value="City" style="ellipse;whiteSpace=wrap;html=1;" vertex="1" parent="h2HnMMq8VR8L7slyEPEh-1">
                    <mxGeometry x="700" y="-10" width="100" height="60" as="geometry"/>
                </mxCell>
                <mxCell id="xJDFAvWGTIx96ouEPMsm-0" value="Write" style="rhombus;whiteSpace=wrap;html=1;rotation=15;" vertex="1" parent="h2HnMMq8VR8L7slyEPEh-1">
                    <mxGeometry x="370" y="350" width="80" height="80" as="geometry"/>
                </mxCell>
                <mxCell id="xJDFAvWGTIx96ouEPMsm-1" value="" style="edgeStyle=none;html=1;startArrow=ERmany;startFill=0;endArrow=none;endFill=0;" edge="1" parent="h2HnMMq8VR8L7slyEPEh-1" source="h2HnMMq8VR8L7slyEPEh-2" target="xJDFAvWGTIx96ouEPMsm-0">
                    <mxGeometry relative="1" as="geometry">
                        <mxPoint x="280" y="333.33333333333326" as="sourcePoint"/>
                        <mxPoint x="550" y="437.14285714285734" as="targetPoint"/>
                        <Array as="points"/>
                    </mxGeometry>
                </mxCell>
                <mxCell id="xJDFAvWGTIx96ouEPMsm-2" value="Publish" style="rhombus;whiteSpace=wrap;html=1;rotation=-30;" vertex="1" parent="h2HnMMq8VR8L7slyEPEh-1">
                    <mxGeometry x="380" y="160" width="80" height="80" as="geometry"/>
                </mxCell>
                <mxCell id="xJDFAvWGTIx96ouEPMsm-3" value="" style="edgeStyle=none;html=1;entryX=0;entryY=0.5;entryDx=0;entryDy=0;startArrow=ERmany;startFill=0;endArrow=none;endFill=0;" edge="1" parent="h2HnMMq8VR8L7slyEPEh-1" source="h2HnMMq8VR8L7slyEPEh-2" target="xJDFAvWGTIx96ouEPMsm-2">
                    <mxGeometry relative="1" as="geometry">
                        <mxPoint x="272.1052631578948" y="280" as="sourcePoint"/>
                        <mxPoint x="550" y="120" as="targetPoint"/>
                    </mxGeometry>
                </mxCell>
            </root>
        </mxGraphModel>
    </diagram>
    <diagram id="YkX_FjYyS1cfpgALLppw" name="books-UML">
        <mxGraphModel dx="685" dy="574" grid="1" gridSize="10" guides="1" tooltips="1" connect="1" arrows="1" fold="1" page="1" pageScale="1" pageWidth="850" pageHeight="1100" math="0" shadow="0">
            <root>
                <mxCell id="c_UIif5kHVgijvH25QhT-0"/>
                <mxCell id="c_UIif5kHVgijvH25QhT-1" parent="c_UIif5kHVgijvH25QhT-0"/>
                <mxCell id="GFM1xeTMiKfHmfWQOPR_-0" value="Book" style="swimlane;fontStyle=0;childLayout=stackLayout;horizontal=1;startSize=26;fillColor=none;horizontalStack=0;resizeParent=1;resizeParentMax=0;resizeLast=0;collapsible=1;marginBottom=0;" vertex="1" parent="c_UIif5kHVgijvH25QhT-1">
                    <mxGeometry x="330" y="297" width="140" height="208" as="geometry"/>
                </mxCell>
                <mxCell id="GFM1xeTMiKfHmfWQOPR_-1" value="+ book_id: int" style="text;strokeColor=none;fillColor=none;align=left;verticalAlign=top;spacingLeft=4;spacingRight=4;overflow=hidden;rotatable=0;points=[[0,0.5],[1,0.5]];portConstraint=eastwest;" vertex="1" parent="GFM1xeTMiKfHmfWQOPR_-0">
                    <mxGeometry y="26" width="140" height="26" as="geometry"/>
                </mxCell>
                <mxCell id="GFM1xeTMiKfHmfWQOPR_-2" value="+ title: string" style="text;strokeColor=none;fillColor=none;align=left;verticalAlign=top;spacingLeft=4;spacingRight=4;overflow=hidden;rotatable=0;points=[[0,0.5],[1,0.5]];portConstraint=eastwest;" vertex="1" parent="GFM1xeTMiKfHmfWQOPR_-0">
                    <mxGeometry y="52" width="140" height="26" as="geometry"/>
                </mxCell>
                <mxCell id="GFM1xeTMiKfHmfWQOPR_-3" value="+ genre: string" style="text;strokeColor=none;fillColor=none;align=left;verticalAlign=top;spacingLeft=4;spacingRight=4;overflow=hidden;rotatable=0;points=[[0,0.5],[1,0.5]];portConstraint=eastwest;" vertex="1" parent="GFM1xeTMiKfHmfWQOPR_-0">
                    <mxGeometry y="78" width="140" height="26" as="geometry"/>
                </mxCell>
                <mxCell id="GFM1xeTMiKfHmfWQOPR_-8" value="+ chapters: string" style="text;strokeColor=none;fillColor=none;align=left;verticalAlign=top;spacingLeft=4;spacingRight=4;overflow=hidden;rotatable=0;points=[[0,0.5],[1,0.5]];portConstraint=eastwest;" vertex="1" parent="GFM1xeTMiKfHmfWQOPR_-0">
                    <mxGeometry y="104" width="140" height="26" as="geometry"/>
                </mxCell>
                <mxCell id="ObsoGVknqK5Mi7B8k5yx-0" value="+ dateOfBuying: date" style="text;strokeColor=none;fillColor=none;align=left;verticalAlign=top;spacingLeft=4;spacingRight=4;overflow=hidden;rotatable=0;points=[[0,0.5],[1,0.5]];portConstraint=eastwest;" vertex="1" parent="GFM1xeTMiKfHmfWQOPR_-0">
                    <mxGeometry y="130" width="140" height="26" as="geometry"/>
                </mxCell>
                <mxCell id="ObsoGVknqK5Mi7B8k5yx-1" value="+ startReading: date" style="text;strokeColor=none;fillColor=none;align=left;verticalAlign=top;spacingLeft=4;spacingRight=4;overflow=hidden;rotatable=0;points=[[0,0.5],[1,0.5]];portConstraint=eastwest;" vertex="1" parent="GFM1xeTMiKfHmfWQOPR_-0">
                    <mxGeometry y="156" width="140" height="26" as="geometry"/>
                </mxCell>
                <mxCell id="ObsoGVknqK5Mi7B8k5yx-2" value="+ endReading: date" style="text;strokeColor=none;fillColor=none;align=left;verticalAlign=top;spacingLeft=4;spacingRight=4;overflow=hidden;rotatable=0;points=[[0,0.5],[1,0.5]];portConstraint=eastwest;" vertex="1" parent="GFM1xeTMiKfHmfWQOPR_-0">
                    <mxGeometry y="182" width="140" height="26" as="geometry"/>
                </mxCell>
                <mxCell id="GFM1xeTMiKfHmfWQOPR_-4" value="Author" style="swimlane;fontStyle=0;childLayout=stackLayout;horizontal=1;startSize=30;fillColor=none;horizontalStack=0;resizeParent=1;resizeParentMax=0;resizeLast=0;collapsible=1;marginBottom=0;" vertex="1" parent="c_UIif5kHVgijvH25QhT-1">
                    <mxGeometry x="630" y="270" width="140" height="212" as="geometry"/>
                </mxCell>
                <mxCell id="GFM1xeTMiKfHmfWQOPR_-5" value="+ author_id: int" style="text;strokeColor=none;fillColor=none;align=left;verticalAlign=top;spacingLeft=4;spacingRight=4;overflow=hidden;rotatable=0;points=[[0,0.5],[1,0.5]];portConstraint=eastwest;" vertex="1" parent="GFM1xeTMiKfHmfWQOPR_-4">
                    <mxGeometry y="30" width="140" height="26" as="geometry"/>
                </mxCell>
                <mxCell id="GFM1xeTMiKfHmfWQOPR_-6" value="+ name: string" style="text;strokeColor=none;fillColor=none;align=left;verticalAlign=top;spacingLeft=4;spacingRight=4;overflow=hidden;rotatable=0;points=[[0,0.5],[1,0.5]];portConstraint=eastwest;" vertex="1" parent="GFM1xeTMiKfHmfWQOPR_-4">
                    <mxGeometry y="56" width="140" height="26" as="geometry"/>
                </mxCell>
                <mxCell id="GFM1xeTMiKfHmfWQOPR_-7" value="+ midName: string" style="text;strokeColor=none;fillColor=none;align=left;verticalAlign=top;spacingLeft=4;spacingRight=4;overflow=hidden;rotatable=0;points=[[0,0.5],[1,0.5]];portConstraint=eastwest;" vertex="1" parent="GFM1xeTMiKfHmfWQOPR_-4">
                    <mxGeometry y="82" width="140" height="26" as="geometry"/>
                </mxCell>
                <mxCell id="wCq3yuCC6Oav8l0T0tey-0" value="+ lastName: string" style="text;strokeColor=none;fillColor=none;align=left;verticalAlign=top;spacingLeft=4;spacingRight=4;overflow=hidden;rotatable=0;points=[[0,0.5],[1,0.5]];portConstraint=eastwest;" vertex="1" parent="GFM1xeTMiKfHmfWQOPR_-4">
                    <mxGeometry y="108" width="140" height="26" as="geometry"/>
                </mxCell>
                <mxCell id="wCq3yuCC6Oav8l0T0tey-1" value="+ country: string" style="text;strokeColor=none;fillColor=none;align=left;verticalAlign=top;spacingLeft=4;spacingRight=4;overflow=hidden;rotatable=0;points=[[0,0.5],[1,0.5]];portConstraint=eastwest;" vertex="1" parent="GFM1xeTMiKfHmfWQOPR_-4">
                    <mxGeometry y="134" width="140" height="26" as="geometry"/>
                </mxCell>
                <mxCell id="FdkrIKoHjNFxjLVdPTY1-0" value="+ birthday: date" style="text;strokeColor=none;fillColor=none;align=left;verticalAlign=top;spacingLeft=4;spacingRight=4;overflow=hidden;rotatable=0;points=[[0,0.5],[1,0.5]];portConstraint=eastwest;" vertex="1" parent="GFM1xeTMiKfHmfWQOPR_-4">
                    <mxGeometry y="160" width="140" height="26" as="geometry"/>
                </mxCell>
                <mxCell id="FdkrIKoHjNFxjLVdPTY1-1" value="+ writenBooks: int" style="text;strokeColor=none;fillColor=none;align=left;verticalAlign=top;spacingLeft=4;spacingRight=4;overflow=hidden;rotatable=0;points=[[0,0.5],[1,0.5]];portConstraint=eastwest;" vertex="1" parent="GFM1xeTMiKfHmfWQOPR_-4">
                    <mxGeometry y="186" width="140" height="26" as="geometry"/>
                </mxCell>
                <mxCell id="GFM1xeTMiKfHmfWQOPR_-9" value="Publisher" style="swimlane;fontStyle=0;childLayout=stackLayout;horizontal=1;startSize=26;fillColor=none;horizontalStack=0;resizeParent=1;resizeParentMax=0;resizeLast=0;collapsible=1;marginBottom=0;" vertex="1" parent="c_UIif5kHVgijvH25QhT-1">
                    <mxGeometry x="40" y="310" width="160" height="130" as="geometry"/>
                </mxCell>
                <mxCell id="GFM1xeTMiKfHmfWQOPR_-10" value="+ publisher_id: int" style="text;strokeColor=none;fillColor=none;align=left;verticalAlign=top;spacingLeft=4;spacingRight=4;overflow=hidden;rotatable=0;points=[[0,0.5],[1,0.5]];portConstraint=eastwest;" vertex="1" parent="GFM1xeTMiKfHmfWQOPR_-9">
                    <mxGeometry y="26" width="160" height="26" as="geometry"/>
                </mxCell>
                <mxCell id="GFM1xeTMiKfHmfWQOPR_-11" value="+ publishingHouse: string" style="text;strokeColor=none;fillColor=none;align=left;verticalAlign=top;spacingLeft=4;spacingRight=4;overflow=hidden;rotatable=0;points=[[0,0.5],[1,0.5]];portConstraint=eastwest;" vertex="1" parent="GFM1xeTMiKfHmfWQOPR_-9">
                    <mxGeometry y="52" width="160" height="26" as="geometry"/>
                </mxCell>
                <mxCell id="GFM1xeTMiKfHmfWQOPR_-12" value="+ city: string" style="text;strokeColor=none;fillColor=none;align=left;verticalAlign=top;spacingLeft=4;spacingRight=4;overflow=hidden;rotatable=0;points=[[0,0.5],[1,0.5]];portConstraint=eastwest;" vertex="1" parent="GFM1xeTMiKfHmfWQOPR_-9">
                    <mxGeometry y="78" width="160" height="26" as="geometry"/>
                </mxCell>
                <mxCell id="GFM1xeTMiKfHmfWQOPR_-13" value="+ country: string" style="text;strokeColor=none;fillColor=none;align=left;verticalAlign=top;spacingLeft=4;spacingRight=4;overflow=hidden;rotatable=0;points=[[0,0.5],[1,0.5]];portConstraint=eastwest;" vertex="1" parent="GFM1xeTMiKfHmfWQOPR_-9">
                    <mxGeometry y="104" width="160" height="26" as="geometry"/>
                </mxCell>
                <mxCell id="FdkrIKoHjNFxjLVdPTY1-2" style="edgeStyle=none;html=1;entryX=0.007;entryY=0.038;entryDx=0;entryDy=0;entryPerimeter=0;startArrow=ERone;startFill=0;endArrow=ERmany;endFill=0;" edge="1" parent="c_UIif5kHVgijvH25QhT-1" source="GFM1xeTMiKfHmfWQOPR_-12" target="GFM1xeTMiKfHmfWQOPR_-8">
                    <mxGeometry relative="1" as="geometry"/>
                </mxCell>
                <mxCell id="FdkrIKoHjNFxjLVdPTY1-3" style="edgeStyle=none;html=1;entryX=-0.014;entryY=0.192;entryDx=0;entryDy=0;entryPerimeter=0;startArrow=ERone;startFill=0;endArrow=ERmany;endFill=0;" edge="1" parent="c_UIif5kHVgijvH25QhT-1" source="GFM1xeTMiKfHmfWQOPR_-8" target="wCq3yuCC6Oav8l0T0tey-1">
                    <mxGeometry relative="1" as="geometry"/>
                </mxCell>
            </root>
        </mxGraphModel>
    </diagram>
    <diagram id="E6StKG7OB3GZpCNb4pRT" name="books-UML-norm">
        <mxGraphModel dx="685" dy="574" grid="1" gridSize="10" guides="1" tooltips="1" connect="1" arrows="1" fold="1" page="1" pageScale="1" pageWidth="850" pageHeight="1100" math="0" shadow="0">
            <root>
                <mxCell id="7nUN5Tn19f-K1CX6Q1xt-0"/>
                <mxCell id="7nUN5Tn19f-K1CX6Q1xt-1" parent="7nUN5Tn19f-K1CX6Q1xt-0"/>
                <mxCell id="0H5b1kdpXwiQDZBMQdsh-23" value="Book" style="swimlane;fontStyle=0;childLayout=stackLayout;horizontal=1;startSize=26;fillColor=none;horizontalStack=0;resizeParent=1;resizeParentMax=0;resizeLast=0;collapsible=1;marginBottom=0;" vertex="1" parent="7nUN5Tn19f-K1CX6Q1xt-1">
                    <mxGeometry x="480" y="371" width="140" height="208" as="geometry"/>
                </mxCell>
                <mxCell id="0H5b1kdpXwiQDZBMQdsh-24" value="+ book_id: int" style="text;strokeColor=none;fillColor=none;align=left;verticalAlign=top;spacingLeft=4;spacingRight=4;overflow=hidden;rotatable=0;points=[[0,0.5],[1,0.5]];portConstraint=eastwest;" vertex="1" parent="0H5b1kdpXwiQDZBMQdsh-23">
                    <mxGeometry y="26" width="140" height="26" as="geometry"/>
                </mxCell>
                <mxCell id="0H5b1kdpXwiQDZBMQdsh-25" value="+ title: string" style="text;strokeColor=none;fillColor=none;align=left;verticalAlign=top;spacingLeft=4;spacingRight=4;overflow=hidden;rotatable=0;points=[[0,0.5],[1,0.5]];portConstraint=eastwest;" vertex="1" parent="0H5b1kdpXwiQDZBMQdsh-23">
                    <mxGeometry y="52" width="140" height="26" as="geometry"/>
                </mxCell>
                <mxCell id="0H5b1kdpXwiQDZBMQdsh-26" value="+ genre: string" style="text;strokeColor=none;fillColor=none;align=left;verticalAlign=top;spacingLeft=4;spacingRight=4;overflow=hidden;rotatable=0;points=[[0,0.5],[1,0.5]];portConstraint=eastwest;" vertex="1" parent="0H5b1kdpXwiQDZBMQdsh-23">
                    <mxGeometry y="78" width="140" height="26" as="geometry"/>
                </mxCell>
                <mxCell id="0H5b1kdpXwiQDZBMQdsh-27" value="+ chapters: string" style="text;strokeColor=none;fillColor=none;align=left;verticalAlign=top;spacingLeft=4;spacingRight=4;overflow=hidden;rotatable=0;points=[[0,0.5],[1,0.5]];portConstraint=eastwest;" vertex="1" parent="0H5b1kdpXwiQDZBMQdsh-23">
                    <mxGeometry y="104" width="140" height="26" as="geometry"/>
                </mxCell>
                <mxCell id="0H5b1kdpXwiQDZBMQdsh-28" value="+ dateOfBuying: date" style="text;strokeColor=none;fillColor=none;align=left;verticalAlign=top;spacingLeft=4;spacingRight=4;overflow=hidden;rotatable=0;points=[[0,0.5],[1,0.5]];portConstraint=eastwest;" vertex="1" parent="0H5b1kdpXwiQDZBMQdsh-23">
                    <mxGeometry y="130" width="140" height="26" as="geometry"/>
                </mxCell>
                <mxCell id="0H5b1kdpXwiQDZBMQdsh-29" value="+ startReading: date" style="text;strokeColor=none;fillColor=none;align=left;verticalAlign=top;spacingLeft=4;spacingRight=4;overflow=hidden;rotatable=0;points=[[0,0.5],[1,0.5]];portConstraint=eastwest;" vertex="1" parent="0H5b1kdpXwiQDZBMQdsh-23">
                    <mxGeometry y="156" width="140" height="26" as="geometry"/>
                </mxCell>
                <mxCell id="0H5b1kdpXwiQDZBMQdsh-30" value="+ endReading: date" style="text;strokeColor=none;fillColor=none;align=left;verticalAlign=top;spacingLeft=4;spacingRight=4;overflow=hidden;rotatable=0;points=[[0,0.5],[1,0.5]];portConstraint=eastwest;" vertex="1" parent="0H5b1kdpXwiQDZBMQdsh-23">
                    <mxGeometry y="182" width="140" height="26" as="geometry"/>
                </mxCell>
                <mxCell id="0H5b1kdpXwiQDZBMQdsh-31" value="Author" style="swimlane;fontStyle=0;childLayout=stackLayout;horizontal=1;startSize=30;fillColor=none;horizontalStack=0;resizeParent=1;resizeParentMax=0;resizeLast=0;collapsible=1;marginBottom=0;" vertex="1" parent="7nUN5Tn19f-K1CX6Q1xt-1">
                    <mxGeometry x="710" y="330" width="140" height="212" as="geometry"/>
                </mxCell>
                <mxCell id="0H5b1kdpXwiQDZBMQdsh-32" value="+ author_id: int" style="text;strokeColor=none;fillColor=none;align=left;verticalAlign=top;spacingLeft=4;spacingRight=4;overflow=hidden;rotatable=0;points=[[0,0.5],[1,0.5]];portConstraint=eastwest;" vertex="1" parent="0H5b1kdpXwiQDZBMQdsh-31">
                    <mxGeometry y="30" width="140" height="26" as="geometry"/>
                </mxCell>
                <mxCell id="0H5b1kdpXwiQDZBMQdsh-33" value="+ name: string" style="text;strokeColor=none;fillColor=none;align=left;verticalAlign=top;spacingLeft=4;spacingRight=4;overflow=hidden;rotatable=0;points=[[0,0.5],[1,0.5]];portConstraint=eastwest;" vertex="1" parent="0H5b1kdpXwiQDZBMQdsh-31">
                    <mxGeometry y="56" width="140" height="26" as="geometry"/>
                </mxCell>
                <mxCell id="0H5b1kdpXwiQDZBMQdsh-34" value="+ midName: string" style="text;strokeColor=none;fillColor=none;align=left;verticalAlign=top;spacingLeft=4;spacingRight=4;overflow=hidden;rotatable=0;points=[[0,0.5],[1,0.5]];portConstraint=eastwest;" vertex="1" parent="0H5b1kdpXwiQDZBMQdsh-31">
                    <mxGeometry y="82" width="140" height="26" as="geometry"/>
                </mxCell>
                <mxCell id="0H5b1kdpXwiQDZBMQdsh-35" value="+ lastName: string" style="text;strokeColor=none;fillColor=none;align=left;verticalAlign=top;spacingLeft=4;spacingRight=4;overflow=hidden;rotatable=0;points=[[0,0.5],[1,0.5]];portConstraint=eastwest;" vertex="1" parent="0H5b1kdpXwiQDZBMQdsh-31">
                    <mxGeometry y="108" width="140" height="26" as="geometry"/>
                </mxCell>
                <mxCell id="0H5b1kdpXwiQDZBMQdsh-36" value="+ country: string" style="text;strokeColor=none;fillColor=none;align=left;verticalAlign=top;spacingLeft=4;spacingRight=4;overflow=hidden;rotatable=0;points=[[0,0.5],[1,0.5]];portConstraint=eastwest;" vertex="1" parent="0H5b1kdpXwiQDZBMQdsh-31">
                    <mxGeometry y="134" width="140" height="26" as="geometry"/>
                </mxCell>
                <mxCell id="0H5b1kdpXwiQDZBMQdsh-37" value="+ birthday: date" style="text;strokeColor=none;fillColor=none;align=left;verticalAlign=top;spacingLeft=4;spacingRight=4;overflow=hidden;rotatable=0;points=[[0,0.5],[1,0.5]];portConstraint=eastwest;" vertex="1" parent="0H5b1kdpXwiQDZBMQdsh-31">
                    <mxGeometry y="160" width="140" height="26" as="geometry"/>
                </mxCell>
                <mxCell id="0H5b1kdpXwiQDZBMQdsh-38" value="+ writenBooks: int" style="text;strokeColor=none;fillColor=none;align=left;verticalAlign=top;spacingLeft=4;spacingRight=4;overflow=hidden;rotatable=0;points=[[0,0.5],[1,0.5]];portConstraint=eastwest;" vertex="1" parent="0H5b1kdpXwiQDZBMQdsh-31">
                    <mxGeometry y="186" width="140" height="26" as="geometry"/>
                </mxCell>
                <mxCell id="0H5b1kdpXwiQDZBMQdsh-51" style="edgeStyle=none;html=1;entryX=0;entryY=0.5;entryDx=0;entryDy=0;startArrow=ERone;startFill=0;endArrow=ERmany;endFill=0;" edge="1" parent="7nUN5Tn19f-K1CX6Q1xt-1" source="0H5b1kdpXwiQDZBMQdsh-39" target="0H5b1kdpXwiQDZBMQdsh-54">
                    <mxGeometry relative="1" as="geometry"/>
                </mxCell>
                <mxCell id="0H5b1kdpXwiQDZBMQdsh-39" value="Publisher" style="swimlane;fontStyle=0;childLayout=stackLayout;horizontal=1;startSize=26;fillColor=none;horizontalStack=0;resizeParent=1;resizeParentMax=0;resizeLast=0;collapsible=1;marginBottom=0;" vertex="1" parent="7nUN5Tn19f-K1CX6Q1xt-1">
                    <mxGeometry x="10" y="371" width="160" height="130" as="geometry"/>
                </mxCell>
                <mxCell id="0H5b1kdpXwiQDZBMQdsh-40" value="+ publisher_id: int" style="text;strokeColor=none;fillColor=none;align=left;verticalAlign=top;spacingLeft=4;spacingRight=4;overflow=hidden;rotatable=0;points=[[0,0.5],[1,0.5]];portConstraint=eastwest;" vertex="1" parent="0H5b1kdpXwiQDZBMQdsh-39">
                    <mxGeometry y="26" width="160" height="26" as="geometry"/>
                </mxCell>
                <mxCell id="0H5b1kdpXwiQDZBMQdsh-41" value="+ publishingHouse: string" style="text;strokeColor=none;fillColor=none;align=left;verticalAlign=top;spacingLeft=4;spacingRight=4;overflow=hidden;rotatable=0;points=[[0,0.5],[1,0.5]];portConstraint=eastwest;" vertex="1" parent="0H5b1kdpXwiQDZBMQdsh-39">
                    <mxGeometry y="52" width="160" height="26" as="geometry"/>
                </mxCell>
                <mxCell id="0H5b1kdpXwiQDZBMQdsh-42" value="+ city: string" style="text;strokeColor=none;fillColor=none;align=left;verticalAlign=top;spacingLeft=4;spacingRight=4;overflow=hidden;rotatable=0;points=[[0,0.5],[1,0.5]];portConstraint=eastwest;" vertex="1" parent="0H5b1kdpXwiQDZBMQdsh-39">
                    <mxGeometry y="78" width="160" height="26" as="geometry"/>
                </mxCell>
                <mxCell id="0H5b1kdpXwiQDZBMQdsh-43" value="+ country: string" style="text;strokeColor=none;fillColor=none;align=left;verticalAlign=top;spacingLeft=4;spacingRight=4;overflow=hidden;rotatable=0;points=[[0,0.5],[1,0.5]];portConstraint=eastwest;" vertex="1" parent="0H5b1kdpXwiQDZBMQdsh-39">
                    <mxGeometry y="104" width="160" height="26" as="geometry"/>
                </mxCell>
                <mxCell id="0H5b1kdpXwiQDZBMQdsh-45" style="edgeStyle=none;html=1;entryX=-0.014;entryY=0.192;entryDx=0;entryDy=0;entryPerimeter=0;startArrow=ERone;startFill=0;endArrow=ERmany;endFill=0;exitX=1;exitY=0.5;exitDx=0;exitDy=0;" edge="1" source="0H5b1kdpXwiQDZBMQdsh-26" target="0H5b1kdpXwiQDZBMQdsh-36" parent="7nUN5Tn19f-K1CX6Q1xt-1">
                    <mxGeometry relative="1" as="geometry"/>
                </mxCell>
                <mxCell id="0H5b1kdpXwiQDZBMQdsh-46" value="Publishing" style="swimlane;fontStyle=0;childLayout=stackLayout;horizontal=1;startSize=26;fillColor=none;horizontalStack=0;resizeParent=1;resizeParentMax=0;resizeLast=0;collapsible=1;marginBottom=0;" vertex="1" parent="7nUN5Tn19f-K1CX6Q1xt-1">
                    <mxGeometry x="240" y="358" width="160" height="156" as="geometry"/>
                </mxCell>
                <mxCell id="0H5b1kdpXwiQDZBMQdsh-47" value="+ fk_publisher_id: int" style="text;strokeColor=none;fillColor=none;align=left;verticalAlign=top;spacingLeft=4;spacingRight=4;overflow=hidden;rotatable=0;points=[[0,0.5],[1,0.5]];portConstraint=eastwest;" vertex="1" parent="0H5b1kdpXwiQDZBMQdsh-46">
                    <mxGeometry y="26" width="160" height="26" as="geometry"/>
                </mxCell>
                <mxCell id="0H5b1kdpXwiQDZBMQdsh-48" value="+ fk_book_id: int" style="text;strokeColor=none;fillColor=none;align=left;verticalAlign=top;spacingLeft=4;spacingRight=4;overflow=hidden;rotatable=0;points=[[0,0.5],[1,0.5]];portConstraint=eastwest;" vertex="1" parent="0H5b1kdpXwiQDZBMQdsh-46">
                    <mxGeometry y="52" width="160" height="26" as="geometry"/>
                </mxCell>
                <mxCell id="0H5b1kdpXwiQDZBMQdsh-54" value="+ fk_author_id: int" style="text;strokeColor=none;fillColor=none;align=left;verticalAlign=top;spacingLeft=4;spacingRight=4;overflow=hidden;rotatable=0;points=[[0,0.5],[1,0.5]];portConstraint=eastwest;" vertex="1" parent="0H5b1kdpXwiQDZBMQdsh-46">
                    <mxGeometry y="78" width="160" height="26" as="geometry"/>
                </mxCell>
                <mxCell id="0H5b1kdpXwiQDZBMQdsh-49" value="+ date: date" style="text;strokeColor=none;fillColor=none;align=left;verticalAlign=top;spacingLeft=4;spacingRight=4;overflow=hidden;rotatable=0;points=[[0,0.5],[1,0.5]];portConstraint=eastwest;" vertex="1" parent="0H5b1kdpXwiQDZBMQdsh-46">
                    <mxGeometry y="104" width="160" height="26" as="geometry"/>
                </mxCell>
                <mxCell id="0H5b1kdpXwiQDZBMQdsh-50" value="+ country: string" style="text;strokeColor=none;fillColor=none;align=left;verticalAlign=top;spacingLeft=4;spacingRight=4;overflow=hidden;rotatable=0;points=[[0,0.5],[1,0.5]];portConstraint=eastwest;" vertex="1" parent="0H5b1kdpXwiQDZBMQdsh-46">
                    <mxGeometry y="130" width="160" height="26" as="geometry"/>
                </mxCell>
                <mxCell id="0H5b1kdpXwiQDZBMQdsh-52" style="edgeStyle=none;html=1;exitX=1;exitY=0.5;exitDx=0;exitDy=0;entryX=-0.014;entryY=0.923;entryDx=0;entryDy=0;entryPerimeter=0;startArrow=ERone;startFill=0;endArrow=ERmany;endFill=0;" edge="1" parent="7nUN5Tn19f-K1CX6Q1xt-1" source="0H5b1kdpXwiQDZBMQdsh-54" target="0H5b1kdpXwiQDZBMQdsh-25">
                    <mxGeometry relative="1" as="geometry"/>
                </mxCell>
            </root>
        </mxGraphModel>
    </diagram>
</mxfile>